<svg version="1.1" id="Layer_1" xmlns="http://www.w3.org/2000/svg" xmlns:xlink="http://www.w3.org/1999/xlink" x="0px" y="0px"
	 width="100%" viewBox="0 0 1200 1200" enable-background="new 0 0 1200 1200" xml:space="preserve">
<path fill="#4A0082" opacity="1.000000" stroke="none" 
	d="
M1106.000000,1201.000000 
	C737.333313,1201.000000 369.166656,1201.000000 1.000000,1201.000000 
	C1.000000,801.000000 1.000000,401.000000 1.000000,1.000000 
	C401.000000,1.000000 801.000000,1.000000 1201.000000,1.000000 
	C1201.000000,401.000000 1201.000000,801.000000 1201.000000,1201.000000 
	C1169.500000,1201.000000 1138.000000,1201.000000 1106.000000,1201.000000 
M241.191727,680.160034 
	C284.420319,685.678772 325.298584,648.086426 321.545654,604.856995 
	C320.886902,605.363037 320.364380,605.678711 319.946045,606.098267 
	C307.358582,618.722229 294.848846,631.424866 282.156433,643.942322 
	C278.877075,647.176514 275.367554,650.454468 271.374573,652.632080 
	C262.117340,657.680542 250.102356,653.833435 244.929352,644.760742 
	C239.441650,635.136169 242.353226,623.625183 251.771744,617.709045 
	C260.514587,612.217346 271.019531,614.377319 280.017029,623.815369 
	C287.450897,615.952087 294.876526,608.097595 301.410675,601.186035 
	C293.008942,592.396362 284.312347,583.298218 276.437500,575.059814 
	C265.247803,585.780334 253.976654,596.418335 242.903656,607.258789 
	C237.766449,612.288086 232.411728,616.320007 224.770187,616.486755 
	C213.887924,616.724304 204.278107,607.764954 204.227905,596.967407 
	C204.175842,585.771851 213.086197,576.862183 224.033249,576.727173 
	C231.537933,576.634705 236.897095,580.293213 242.232224,587.242004 
	C249.785721,579.110474 256.618256,571.339844 263.910095,564.027283 
	C270.611603,557.306702 277.807770,551.079285 285.097961,544.346497 
	C262.824799,531.189026 232.438309,530.524048 207.134384,547.694275 
	C182.592224,564.347595 170.887665,596.123413 178.286850,625.612244 
	C185.681351,655.082397 210.498001,676.875977 241.191727,680.160034 
M454.604980,652.928467 
	C461.364166,652.928467 468.123352,652.928467 475.133270,652.928467 
	C475.133270,639.869446 475.299469,627.553223 475.064758,615.244629 
	C474.943237,608.870972 478.126160,604.895691 483.253937,602.103394 
	C487.495667,599.793762 491.736816,601.489502 493.153076,606.107483 
	C493.869720,608.444275 494.026978,611.019714 494.049286,613.490723 
	C494.142578,623.815063 494.088806,634.140686 494.088928,644.465881 
	C494.088959,647.217041 494.088898,649.968201 494.088898,652.765564 
	C503.505157,652.765564 512.139526,652.765564 521.049316,652.765564 
	C521.131653,651.141174 521.274170,649.664917 521.270447,648.189026 
	C521.241455,636.699219 521.095215,625.208801 521.172119,613.719849 
	C521.212891,607.626465 527.816895,600.785339 533.098572,601.001770 
	C537.772034,601.193298 540.075012,605.091675 540.085876,612.891724 
	C540.098389,621.884644 540.088806,630.877502 540.088867,639.870422 
	C540.088867,644.129639 540.088867,648.388794 540.088867,652.694946 
	C549.519409,652.694946 558.135864,652.694946 566.901184,652.694946 
	C567.043640,651.513306 567.261475,650.541626 567.262817,649.569702 
	C567.283630,634.248474 567.351196,618.926697 567.219543,603.606567 
	C567.189758,600.136047 566.735901,596.606628 565.975037,593.217102 
	C563.977905,584.320984 558.121765,578.889954 549.239197,577.805420 
	C537.429382,576.363403 527.280884,579.736328 519.236023,589.295532 
	C514.733398,579.829285 506.746765,577.107666 497.292786,577.494812 
	C488.154053,577.869080 479.783600,580.472839 472.871155,588.065979 
	C472.535431,584.325806 472.305511,581.764221 472.086578,579.325012 
	C463.855835,579.325012 456.090485,579.325012 448.292236,579.325012 
	C448.292236,603.958923 448.292236,628.306274 448.292236,652.928467 
	C450.341980,652.928467 451.989136,652.928467 454.604980,652.928467 
M608.154724,653.915039 
	C616.947449,652.805603 624.592285,649.324585 630.675659,642.188049 
	C633.190125,654.317322 646.074890,656.437927 658.764954,651.951477 
	C658.764954,645.576233 658.798950,639.095215 658.724548,632.615356 
	C658.714661,631.749084 658.359680,630.306091 657.820312,630.118164 
	C653.364563,628.565674 653.827454,624.917480 653.831360,621.414368 
	C653.838623,614.918274 653.833252,608.422241 653.833252,601.926147 
	C653.833191,594.336914 653.833252,586.747620 653.833252,579.011169 
	C644.324646,579.011169 635.581482,579.011169 626.460938,579.011169 
	C626.460938,593.119995 626.494873,606.918335 626.445068,620.716370 
	C626.423767,626.628845 621.017517,631.291870 614.375488,631.295959 
	C609.207886,631.299133 606.388245,627.970459 606.267151,621.487976 
	C606.170654,616.326233 606.243713,611.161255 606.243286,605.997742 
	C606.242554,597.049316 606.243103,588.100830 606.243103,579.040161 
	C596.848938,579.040161 588.125671,579.040161 579.148010,579.040161 
	C579.148010,595.861450 579.096985,612.341248 579.195007,628.820129 
	C579.212646,631.793396 579.544800,634.835571 580.246765,637.720581 
	C582.371338,646.453003 587.830444,652.089661 596.767151,653.701355 
	C600.161133,654.313477 603.739136,653.905334 608.154724,653.915039 
M972.623169,617.609253 
	C972.630188,615.776184 972.508972,613.931885 972.667969,612.112122 
	C973.162537,606.454590 979.851196,600.462097 985.329590,600.667664 
	C990.441833,600.859497 992.822571,604.444641 992.856689,612.086548 
	C992.882751,617.919006 992.862305,623.751648 992.862305,629.584229 
	C992.862366,637.025513 992.862366,644.466736 992.862366,651.947510 
	C1002.240784,651.947510 1010.982361,651.947510 1019.670471,651.947510 
	C1019.670471,633.335754 1019.720337,615.041870 1019.602478,596.749023 
	C1019.588928,594.645996 1018.807129,592.490540 1018.096191,590.459351 
	C1015.126160,581.973572 1008.583130,577.372253 999.616760,577.034241 
	C988.635071,576.620239 978.535217,578.685791 970.143860,587.692078 
	C969.965088,584.028870 969.832153,581.303772 969.693237,578.457153 
	C961.530518,578.457153 953.660461,578.457153 945.757202,578.457153 
	C945.757202,603.190674 945.757202,627.567078 945.757202,651.905762 
	C954.882568,651.905762 963.623352,651.905762 972.623047,651.905762 
	C972.623047,640.559021 972.623047,629.569885 972.623169,617.609253 
M931.196960,635.693237 
	C939.839050,619.441650 938.104858,600.945435 926.483826,588.820374 
	C916.873718,578.793396 904.600342,576.334595 891.265625,577.067139 
	C875.477905,577.934448 861.879639,588.124634 857.246277,602.805054 
	C852.251038,618.632202 857.124939,635.697510 869.249817,645.272034 
	C886.293640,658.731018 918.053589,656.779724 931.196960,635.693237 
M786.548218,588.044556 
	C775.217590,599.941589 771.760010,616.982178 778.366638,631.458740 
	C786.217834,648.662415 800.702087,654.604492 818.682129,653.997620 
	C833.377380,653.501648 844.597473,647.252197 852.331604,633.895203 
	C843.861511,631.290222 835.994934,628.776978 828.050476,626.540222 
	C826.996277,626.243469 825.292175,627.047363 824.319885,627.858215 
	C816.454834,634.417114 805.999207,631.229126 803.888916,621.225708 
	C803.123657,617.598145 803.156982,613.529175 803.937988,609.901001 
	C806.025024,600.206177 816.435120,597.058105 824.116089,603.368713 
	C825.212463,604.269531 827.146606,605.097473 828.357178,604.758789 
	C836.272949,602.544250 844.096252,599.999146 852.008789,597.543762 
	C840.658875,575.008789 807.530151,570.092896 786.548218,588.044556 
M722.444214,595.058228 
	C723.905029,592.700623 725.365845,590.343018 726.894836,587.875366 
	C715.777588,578.309509 703.297424,575.799988 689.682739,577.825256 
	C678.577698,579.477112 670.516052,585.209045 666.974915,596.196533 
	C663.768738,606.144531 666.624878,613.627991 675.764526,618.512695 
	C680.120544,620.840820 684.943787,622.315491 689.602478,624.050293 
	C693.487610,625.496887 697.550781,626.519165 701.305298,628.232971 
	C702.620728,628.833313 703.251831,630.932983 704.195435,632.348022 
	C702.794128,633.266418 701.479736,634.729492 699.970398,634.970215 
	C697.915588,635.297852 695.547546,635.133057 693.602173,634.406921 
	C686.982788,631.936035 680.489990,629.126099 673.479065,626.253113 
	C670.712219,631.122131 667.723572,636.381348 664.808655,641.510925 
	C677.924866,653.995728 703.176270,657.970154 718.007324,650.225891 
	C726.520630,645.780579 730.559021,638.650818 730.608521,629.143982 
	C730.656799,619.859985 725.390808,614.250793 717.380371,611.056396 
	C711.073425,608.541443 704.426392,606.891968 698.029907,604.582825 
	C695.131287,603.536377 690.288391,603.147827 691.595642,598.646423 
	C692.888245,594.195862 697.459839,595.813721 700.702881,596.424316 
	C703.418579,596.935608 706.015686,598.289551 708.545471,599.517395 
	C711.219055,600.815002 713.750916,602.404724 716.707214,604.071167 
	C718.520508,601.229919 720.293091,598.452515 722.444214,595.058228 
M766.410400,580.311340 
	C765.888245,579.793396 765.371094,578.829773 764.843262,578.823975 
	C756.399658,578.729553 747.954773,578.757385 739.606323,578.757385 
	C739.606323,603.726379 739.606323,628.117065 739.606323,652.666077 
	C748.595581,652.666077 757.209900,652.666077 766.443970,652.666077 
	C766.443970,628.728577 766.443970,604.960632 766.410400,580.311340 
M743.753662,550.102173 
	C742.336243,550.213379 740.918823,550.324646 739.575317,550.430054 
	C739.575317,558.141479 739.575317,565.372192 739.575317,572.612000 
	C748.632446,572.612000 757.342163,572.612000 766.038696,572.612000 
	C766.038696,564.931763 766.038696,557.577881 766.038696,550.102112 
	C758.653564,550.102112 751.680115,550.102112 743.753662,550.102173 
M380.915436,550.500000 
	C380.915375,537.836243 380.947937,525.172302 380.872803,512.508972 
	C380.863678,510.974670 380.273651,509.443787 379.952850,507.911316 
	C379.500519,508.025330 379.048218,508.139343 378.595886,508.253326 
	C378.595886,570.120544 378.595886,631.987732 378.595886,694.250732 
	C379.655975,693.762939 380.438477,693.572388 380.439301,693.378662 
	C380.633881,646.085876 380.773895,598.792969 380.915436,550.500000 
z"/>
<path fill="#F2EB03" opacity="1.000000" stroke="none" 
	d="
M240.748169,680.117676 
	C210.498001,676.875977 185.681351,655.082397 178.286850,625.612244 
	C170.887665,596.123413 182.592224,564.347595 207.134384,547.694275 
	C232.438309,530.524048 262.824799,531.189026 285.097961,544.346497 
	C277.807770,551.079285 270.611603,557.306702 263.910095,564.027283 
	C256.618256,571.339844 249.785721,579.110474 242.232224,587.242004 
	C236.897095,580.293213 231.537933,576.634705 224.033249,576.727173 
	C213.086197,576.862183 204.175842,585.771851 204.227905,596.967407 
	C204.278107,607.764954 213.887924,616.724304 224.770187,616.486755 
	C232.411728,616.320007 237.766449,612.288086 242.903656,607.258789 
	C253.976654,596.418335 265.247803,585.780334 276.437500,575.059814 
	C284.312347,583.298218 293.008942,592.396362 301.410675,601.186035 
	C294.876526,608.097595 287.450897,615.952087 280.017029,623.815369 
	C271.019531,614.377319 260.514587,612.217346 251.771744,617.709045 
	C242.353226,623.625183 239.441650,635.136169 244.929352,644.760742 
	C250.102356,653.833435 262.117340,657.680542 271.374573,652.632080 
	C275.367554,650.454468 278.877075,647.176514 282.156433,643.942322 
	C294.848846,631.424866 307.358582,618.722229 319.946045,606.098267 
	C320.364380,605.678711 320.886902,605.363037 321.545654,604.856995 
	C325.298584,648.086426 284.420319,685.678772 240.748169,680.117676 
z"/>
<path fill="#F1EA04" opacity="1.000000" stroke="none" 
	d="
M454.120636,652.928467 
	C451.989136,652.928467 450.341980,652.928467 448.292236,652.928467 
	C448.292236,628.306274 448.292236,603.958923 448.292236,579.325012 
	C456.090485,579.325012 463.855835,579.325012 472.086578,579.325012 
	C472.305511,581.764221 472.535431,584.325806 472.871155,588.065979 
	C479.783600,580.472839 488.154053,577.869080 497.292786,577.494812 
	C506.746765,577.107666 514.733398,579.829285 519.236023,589.295532 
	C527.280884,579.736328 537.429382,576.363403 549.239197,577.805420 
	C558.121765,578.889954 563.977905,584.320984 565.975037,593.217102 
	C566.735901,596.606628 567.189758,600.136047 567.219543,603.606567 
	C567.351196,618.926697 567.283630,634.248474 567.262817,649.569702 
	C567.261475,650.541626 567.043640,651.513306 566.901184,652.694946 
	C558.135864,652.694946 549.519409,652.694946 540.088867,652.694946 
	C540.088867,648.388794 540.088867,644.129639 540.088867,639.870422 
	C540.088806,630.877502 540.098389,621.884644 540.085876,612.891724 
	C540.075012,605.091675 537.772034,601.193298 533.098572,601.001770 
	C527.816895,600.785339 521.212891,607.626465 521.172119,613.719849 
	C521.095215,625.208801 521.241455,636.699219 521.270447,648.189026 
	C521.274170,649.664917 521.131653,651.141174 521.049316,652.765564 
	C512.139526,652.765564 503.505157,652.765564 494.088898,652.765564 
	C494.088898,649.968201 494.088959,647.217041 494.088928,644.465881 
	C494.088806,634.140686 494.142578,623.815063 494.049286,613.490723 
	C494.026978,611.019714 493.869720,608.444275 493.153076,606.107483 
	C491.736816,601.489502 487.495667,599.793762 483.253937,602.103394 
	C478.126160,604.895691 474.943237,608.870972 475.064758,615.244629 
	C475.299469,627.553223 475.133270,639.869446 475.133270,652.928467 
	C468.123352,652.928467 461.364166,652.928467 454.120636,652.928467 
z"/>
<path fill="#F0E905" opacity="1.000000" stroke="none" 
	d="
M607.693970,653.938599 
	C603.739136,653.905334 600.161133,654.313477 596.767151,653.701355 
	C587.830444,652.089661 582.371338,646.453003 580.246765,637.720581 
	C579.544800,634.835571 579.212646,631.793396 579.195007,628.820129 
	C579.096985,612.341248 579.148010,595.861450 579.148010,579.040161 
	C588.125671,579.040161 596.848938,579.040161 606.243103,579.040161 
	C606.243103,588.100830 606.242554,597.049316 606.243286,605.997742 
	C606.243713,611.161255 606.170654,616.326233 606.267151,621.487976 
	C606.388245,627.970459 609.207886,631.299133 614.375488,631.295959 
	C621.017517,631.291870 626.423767,626.628845 626.445068,620.716370 
	C626.494873,606.918335 626.460938,593.119995 626.460938,579.011169 
	C635.581482,579.011169 644.324646,579.011169 653.833252,579.011169 
	C653.833252,586.747620 653.833191,594.336914 653.833252,601.926147 
	C653.833252,608.422241 653.838623,614.918274 653.831360,621.414368 
	C653.827454,624.917480 653.364563,628.565674 657.820312,630.118164 
	C658.359680,630.306091 658.714661,631.749084 658.724548,632.615356 
	C658.798950,639.095215 658.764954,645.576233 658.764954,651.951477 
	C646.074890,656.437927 633.190125,654.317322 630.675659,642.188049 
	C624.592285,649.324585 616.947449,652.805603 607.693970,653.938599 
z"/>
<path fill="#F0E905" opacity="1.000000" stroke="none" 
	d="
M972.623108,618.094971 
	C972.623047,629.569885 972.623047,640.559021 972.623047,651.905762 
	C963.623352,651.905762 954.882568,651.905762 945.757202,651.905762 
	C945.757202,627.567078 945.757202,603.190674 945.757202,578.457153 
	C953.660461,578.457153 961.530518,578.457153 969.693237,578.457153 
	C969.832153,581.303772 969.965088,584.028870 970.143860,587.692078 
	C978.535217,578.685791 988.635071,576.620239 999.616760,577.034241 
	C1008.583130,577.372253 1015.126160,581.973572 1018.096191,590.459351 
	C1018.807129,592.490540 1019.588928,594.645996 1019.602478,596.749023 
	C1019.720337,615.041870 1019.670471,633.335754 1019.670471,651.947510 
	C1010.982361,651.947510 1002.240784,651.947510 992.862366,651.947510 
	C992.862366,644.466736 992.862366,637.025513 992.862305,629.584229 
	C992.862305,623.751648 992.882751,617.919006 992.856689,612.086548 
	C992.822571,604.444641 990.441833,600.859497 985.329590,600.667664 
	C979.851196,600.462097 973.162537,606.454590 972.667969,612.112122 
	C972.508972,613.931885 972.630188,615.776184 972.623108,618.094971 
z"/>
<path fill="#F1EA04" opacity="1.000000" stroke="none" 
	d="
M931.009644,636.003174 
	C918.053589,656.779724 886.293640,658.731018 869.249817,645.272034 
	C857.124939,635.697510 852.251038,618.632202 857.246277,602.805054 
	C861.879639,588.124634 875.477905,577.934448 891.265625,577.067139 
	C904.600342,576.334595 916.873718,578.793396 926.483826,588.820374 
	C938.104858,600.945435 939.839050,619.441650 931.009644,636.003174 
M883.402649,617.948853 
	C883.540405,618.770264 883.637939,619.600769 883.822266,620.411560 
	C885.350342,627.133850 890.240234,631.263123 896.393127,631.047241 
	C902.326843,630.839111 907.165405,626.601135 908.119995,620.069275 
	C908.615784,616.676941 908.561462,613.064209 907.978210,609.685181 
	C906.961365,603.794250 902.132812,599.934570 896.478271,599.777527 
	C890.357178,599.607483 885.514221,603.118103 884.055847,609.188843 
	C883.442078,611.743652 883.532410,614.467651 883.402649,617.948853 
z"/>
<path fill="#F1EA04" opacity="1.000000" stroke="none" 
	d="
M786.814209,587.808289 
	C807.530151,570.092896 840.658875,575.008789 852.008789,597.543762 
	C844.096252,599.999146 836.272949,602.544250 828.357178,604.758789 
	C827.146606,605.097473 825.212463,604.269531 824.116089,603.368713 
	C816.435120,597.058105 806.025024,600.206177 803.937988,609.901001 
	C803.156982,613.529175 803.123657,617.598145 803.888916,621.225708 
	C805.999207,631.229126 816.454834,634.417114 824.319885,627.858215 
	C825.292175,627.047363 826.996277,626.243469 828.050476,626.540222 
	C835.994934,628.776978 843.861511,631.290222 852.331604,633.895203 
	C844.597473,647.252197 833.377380,653.501648 818.682129,653.997620 
	C800.702087,654.604492 786.217834,648.662415 778.366638,631.458740 
	C771.760010,616.982178 775.217590,599.941589 786.814209,587.808289 
z"/>
<path fill="#F0E905" opacity="1.000000" stroke="none" 
	d="
M722.254883,595.366699 
	C720.293091,598.452515 718.520508,601.229919 716.707214,604.071167 
	C713.750916,602.404724 711.219055,600.815002 708.545471,599.517395 
	C706.015686,598.289551 703.418579,596.935608 700.702881,596.424316 
	C697.459839,595.813721 692.888245,594.195862 691.595642,598.646423 
	C690.288391,603.147827 695.131287,603.536377 698.029907,604.582825 
	C704.426392,606.891968 711.073425,608.541443 717.380371,611.056396 
	C725.390808,614.250793 730.656799,619.859985 730.608521,629.143982 
	C730.559021,638.650818 726.520630,645.780579 718.007324,650.225891 
	C703.176270,657.970154 677.924866,653.995728 664.808655,641.510925 
	C667.723572,636.381348 670.712219,631.122131 673.479065,626.253113 
	C680.489990,629.126099 686.982788,631.936035 693.602173,634.406921 
	C695.547546,635.133057 697.915588,635.297852 699.970398,634.970215 
	C701.479736,634.729492 702.794128,633.266418 704.195435,632.348022 
	C703.251831,630.932983 702.620728,628.833313 701.305298,628.232971 
	C697.550781,626.519165 693.487610,625.496887 689.602478,624.050293 
	C684.943787,622.315491 680.120544,620.840820 675.764526,618.512695 
	C666.624878,613.627991 663.768738,606.144531 666.974915,596.196533 
	C670.516052,585.209045 678.577698,579.477112 689.682739,577.825256 
	C703.297424,575.799988 715.777588,578.309509 726.894836,587.875366 
	C725.365845,590.343018 723.905029,592.700623 722.254883,595.366699 
z"/>
<path fill="#F0E905" opacity="1.000000" stroke="none" 
	d="
M766.427185,580.752014 
	C766.443970,604.960632 766.443970,628.728577 766.443970,652.666077 
	C757.209900,652.666077 748.595581,652.666077 739.606323,652.666077 
	C739.606323,628.117065 739.606323,603.726379 739.606323,578.757385 
	C747.954773,578.757385 756.399658,578.729553 764.843262,578.823975 
	C765.371094,578.829773 765.888245,579.793396 766.427185,580.752014 
z"/>
<path fill="#F0E905" opacity="1.000000" stroke="none" 
	d="
M744.230164,550.102173 
	C751.680115,550.102112 758.653564,550.102112 766.038696,550.102112 
	C766.038696,557.577881 766.038696,564.931763 766.038696,572.612000 
	C757.342163,572.612000 748.632446,572.612000 739.575317,572.612000 
	C739.575317,565.372192 739.575317,558.141479 739.575317,550.430054 
	C740.918823,550.324646 742.336243,550.213379 744.230164,550.102173 
z"/>
<path fill="#DFD21D" opacity="1.000000" stroke="none" 
	d="
M380.915405,551.000000 
	C380.773895,598.792969 380.633881,646.085876 380.439301,693.378662 
	C380.438477,693.572388 379.655975,693.762939 378.595886,694.250732 
	C378.595886,631.987732 378.595886,570.120544 378.595886,508.253326 
	C379.048218,508.139343 379.500519,508.025330 379.952850,507.911316 
	C380.273651,509.443787 380.863678,510.974670 380.872803,512.508972 
	C380.947937,525.172302 380.915375,537.836243 380.915405,551.000000 
z"/>
<path fill="#4A0082" opacity="1.000000" stroke="none" 
	d="
M883.352661,617.531799 
	C883.532410,614.467651 883.442078,611.743652 884.055847,609.188843 
	C885.514221,603.118103 890.357178,599.607483 896.478271,599.777527 
	C902.132812,599.934570 906.961365,603.794250 907.978210,609.685181 
	C908.561462,613.064209 908.615784,616.676941 908.119995,620.069275 
	C907.165405,626.601135 902.326843,630.839111 896.393127,631.047241 
	C890.240234,631.263123 885.350342,627.133850 883.822266,620.411560 
	C883.637939,619.600769 883.540405,618.770264 883.352661,617.531799 
z"/>
</svg>