<svg version="1.1" id="Layer_1" xmlns="http://www.w3.org/2000/svg" xmlns:xlink="http://www.w3.org/1999/xlink" x="0px" y="0px"
	 width="100%" viewBox="0 0 1200 675" enable-background="new 0 0 1200 675" xml:space="preserve">
<path fill="#4A0082" opacity="1.000000" stroke="none" 
	d="
M1116.000000,676.000000 
	C744.000000,676.000000 372.500031,676.000000 1.000050,676.000000 
	C1.000033,451.000031 1.000033,226.000076 1.000017,1.000080 
	C400.999969,1.000053 800.999939,1.000053 1201.000000,1.000027 
	C1201.000000,225.999924 1201.000000,450.999847 1201.000000,675.999878 
	C1172.833374,676.000000 1144.666626,676.000000 1116.000000,676.000000 
M180.100189,317.630981 
	C175.659134,330.697235 174.910980,343.863647 177.784668,357.469086 
	C184.628067,389.868958 213.333878,414.174896 246.337540,415.007660 
	C280.303253,415.864716 311.384033,393.246338 319.541504,361.286316 
	C321.334503,354.261566 321.695953,346.871399 322.716644,339.649536 
	C322.195709,339.535950 321.674774,339.422363 321.153839,339.308777 
	C308.441772,351.994202 295.802185,364.753632 282.971619,377.317993 
	C279.325104,380.888855 275.513672,384.615295 271.093781,387.005219 
	C261.820648,392.019470 249.782349,387.904602 244.769501,378.755798 
	C239.541107,369.213623 242.448288,357.932983 251.648911,352.061920 
	C260.471588,346.432068 270.776489,348.517151 279.883331,358.000183 
	C287.274719,350.142975 294.660431,342.291809 301.551361,334.966614 
	C293.272583,326.369934 284.652679,317.419006 275.692780,308.115082 
	C271.058380,312.828705 266.564514,317.464996 261.998444,322.029083 
	C253.871094,330.152893 246.018936,338.591034 237.450531,346.222778 
	C230.040771,352.822449 218.707077,352.239349 211.209488,345.925171 
	C204.009888,339.861938 202.242111,330.001587 206.823471,321.461090 
	C211.533737,312.680298 220.901474,308.665497 230.634247,312.157593 
	C234.669647,313.605469 238.043289,316.897705 241.529419,319.225342 
	C255.281097,305.603455 269.386322,291.631378 283.833710,277.320343 
	C265.687866,268.390259 247.414688,266.152740 228.540619,271.839783 
	C205.155914,278.885956 189.253403,294.209045 180.100189,317.630981 
M456.544220,387.152100 
	C462.633545,387.152100 468.722870,387.152100 474.572815,387.152100 
	C474.886200,386.065796 475.053955,385.754120 475.054901,385.441925 
	C475.090454,373.447968 475.254913,361.451660 475.064362,349.461060 
	C474.984558,344.440338 477.034119,340.801453 480.800232,337.926178 
	C487.255768,332.997681 493.211151,335.313110 493.754913,343.410065 
	C494.345276,352.201538 494.033386,361.054688 494.083313,369.881104 
	C494.115051,375.491089 494.089233,381.101410 494.089233,386.840851 
	C503.424194,386.840851 512.153198,386.840851 521.280823,386.840851 
	C521.280823,384.717896 521.287537,382.904480 521.279724,381.091095 
	C521.233398,370.263214 521.121277,359.435120 521.158630,348.607544 
	C521.180786,342.186798 527.602051,335.081604 533.012634,335.245392 
	C537.738525,335.388458 540.080078,339.467987 540.086975,347.618652 
	C540.095825,358.114349 540.089417,368.610016 540.089600,379.105713 
	C540.089600,381.692993 540.089600,384.280304 540.089600,386.851379 
	C549.578613,386.851379 558.191467,386.851379 566.467407,386.851379 
	C566.467407,367.606079 567.210571,348.618317 566.199890,329.724365 
	C565.552002,317.613159 556.371643,311.285065 543.996521,311.712738 
	C534.130554,312.053680 525.766113,315.655548 519.192810,323.556793 
	C514.323792,313.851471 506.351440,311.407288 496.829041,311.818542 
	C487.782288,312.209290 479.788544,315.127014 472.869019,322.161591 
	C472.546539,318.612732 472.324829,316.172821 472.100037,313.698883 
	C463.940582,313.698883 456.072449,313.698883 448.262482,313.698883 
	C448.262482,338.338623 448.262482,362.569946 448.262482,387.152130 
	C450.942749,387.152130 453.251953,387.152130 456.544220,387.152100 
M612.855164,387.208099 
	C618.984375,384.217621 625.113647,381.227173 631.012756,378.348999 
	C633.295044,388.296631 644.856628,390.751434 658.770386,386.265411 
	C658.770386,382.043732 658.843689,377.721039 658.749084,373.402039 
	C658.659851,369.330536 660.091125,364.807312 654.961182,362.205475 
	C654.040649,361.738586 653.909424,359.176819 653.884827,357.575012 
	C653.774658,350.410309 653.834595,343.242981 653.834045,336.076599 
	C653.833496,328.490295 653.833923,320.903961 653.833923,313.169556 
	C644.322510,313.169556 635.715820,313.169556 626.459961,313.169556 
	C626.459961,315.176361 626.460083,316.953369 626.460022,318.730347 
	C626.459595,330.729858 626.489441,342.729523 626.445923,354.728851 
	C626.424011,360.773224 621.280334,365.439423 614.607422,365.607910 
	C609.283020,365.742340 606.352722,362.269348 606.266846,355.479889 
	C606.182556,348.814514 606.244812,342.147308 606.244019,335.480896 
	C606.243225,328.053925 606.243835,320.626984 606.243835,313.237244 
	C596.739319,313.237244 588.135498,313.237244 579.289001,313.237244 
	C579.289001,331.181824 579.258301,348.825562 579.331970,366.468842 
	C579.340210,368.441620 579.773926,370.457214 580.295471,372.375458 
	C582.598816,380.847717 587.885376,386.640594 596.676392,387.864594 
	C601.680603,388.561340 606.916321,387.595276 612.855164,387.208099 
M978.898071,337.124542 
	C987.086853,332.514740 992.628296,335.563446 992.818237,344.939209 
	C992.969971,352.430847 992.854126,359.927887 992.855530,367.422546 
	C992.856689,373.705200 992.855713,379.987854 992.855713,386.301483 
	C1002.225952,386.301483 1010.966248,386.301483 1019.681458,386.301483 
	C1019.681458,367.682770 1019.714844,349.397827 1019.628662,331.113403 
	C1019.620239,329.326843 1018.999634,327.504852 1018.452637,325.765503 
	C1015.534546,316.487274 1008.899170,311.616730 999.196655,311.279999 
	C988.379395,310.904602 978.485901,313.115295 970.163208,321.934296 
	C969.971436,318.224304 969.831421,315.514679 969.692688,312.831207 
	C961.409851,312.831207 953.546936,312.831207 945.669189,312.831207 
	C945.669189,337.539276 945.669189,361.787018 945.669189,386.296326 
	C954.683899,386.296326 963.396912,386.296326 972.631042,386.296326 
	C972.631042,374.014923 972.819885,362.060913 972.544861,350.117615 
	C972.422241,344.792145 974.119812,340.729187 978.898071,337.124542 
M860.740417,329.250671 
	C846.455017,355.582916 860.392029,383.763763 890.203674,387.653625 
	C906.350830,389.760529 920.992615,385.435516 930.340637,371.047729 
	C939.161987,357.470764 939.034058,342.863098 930.943176,328.943085 
	C917.103699,305.132660 875.168213,305.195953 860.740417,329.250671 
M782.048584,372.463104 
	C799.548218,395.597382 840.186279,393.338837 851.858643,368.260284 
	C850.480286,367.732483 849.148743,367.134827 847.764648,366.707520 
	C841.092346,364.647675 834.429504,362.547485 827.696960,360.703674 
	C826.770142,360.449860 825.280273,361.314728 824.377014,362.057892 
	C816.032532,368.923401 805.536194,365.314819 803.690002,354.618256 
	C803.085327,351.114929 803.198669,347.234894 804.038330,343.783722 
	C806.314636,334.427521 816.646973,331.440247 824.042786,337.614258 
	C825.043945,338.450012 826.723145,339.408447 827.757751,339.120819 
	C835.853394,336.870270 843.868286,334.329163 851.994446,331.851379 
	C842.025513,312.130615 814.577576,305.351593 793.780518,317.020905 
	C774.993164,327.562622 769.570801,352.083252 782.048584,372.463104 
M729.665527,357.050690 
	C727.580444,351.060730 722.937744,347.544647 717.415833,345.337646 
	C711.565125,342.999176 705.385864,341.492279 699.487671,339.258850 
	C696.248413,338.032288 690.237061,338.178284 691.799255,332.936157 
	C693.287842,327.941284 698.639465,329.921906 702.183777,331.186218 
	C707.125732,332.949127 711.750671,335.601044 716.937866,338.076050 
	C720.192993,332.905884 723.504089,327.646820 726.733582,322.517395 
	C714.910767,310.729004 692.249512,307.865082 678.418640,315.976044 
	C672.859802,319.235901 669.095337,323.948792 667.097412,330.033691 
	C663.714417,340.336792 666.588501,348.114868 676.225037,353.035248 
	C681.215454,355.583313 686.729492,357.106567 692.008789,359.088074 
	C695.421814,360.369171 698.935425,361.442749 702.194824,363.036835 
	C703.200745,363.528809 704.180481,365.563843 703.960510,366.646179 
	C703.748413,367.689789 702.035950,369.032104 700.869934,369.152618 
	C698.440552,369.403687 695.739685,369.475250 693.500549,368.659515 
	C686.866150,366.242645 680.401733,363.359039 673.520325,360.512970 
	C671.302307,364.394440 669.128601,368.705444 666.465210,372.689087 
	C664.544312,375.562134 665.494019,377.052917 667.916626,378.722717 
	C680.818237,387.615356 695.059448,390.283173 710.208557,387.154755 
	C725.644592,383.967041 732.492126,373.332336 729.665527,357.050690 
M766.449097,336.500488 
	C766.449097,328.753601 766.449097,321.006744 766.449097,313.220703 
	C757.033752,313.220703 748.440857,313.220703 739.558777,313.220703 
	C739.558777,337.860229 739.558777,362.220398 739.558777,386.715881 
	C748.595703,386.715881 757.303284,386.715881 766.448975,386.715881 
	C766.448975,370.081207 766.448975,353.790833 766.449097,336.500488 
M763.757080,307.154755 
	C764.636475,306.649353 766.268860,306.162109 766.281494,305.635803 
	C766.451538,298.586395 766.395325,291.531525 766.395325,284.767944 
	C756.879333,284.767944 748.184631,284.767944 739.407837,284.767944 
	C739.407837,292.393372 739.407837,299.502106 739.407837,307.162170 
	C747.347046,307.162170 755.113159,307.162170 763.757080,307.154755 
M378.000977,312.500000 
	C378.000977,351.028595 378.000977,389.557220 378.000977,428.085815 
	C378.762451,428.126160 379.523895,428.166504 380.285370,428.206848 
	C380.495361,426.447540 380.887146,424.688416 380.888672,422.928925 
	C380.923370,382.814270 380.915405,342.699554 380.915405,302.584869 
	C380.915405,284.108795 380.937561,265.632690 380.876892,247.156799 
	C380.871490,245.514069 380.326721,243.873093 380.032440,242.231308 
	C379.355286,242.321350 378.678131,242.411377 378.000977,242.501419 
	C378.000977,265.500946 378.000977,288.500458 378.000977,312.500000 
z"/>
<path fill="#F1EA04" opacity="1.000000" stroke="none" 
	d="
M180.231781,317.262268 
	C189.253403,294.209045 205.155914,278.885956 228.540619,271.839783 
	C247.414688,266.152740 265.687866,268.390259 283.833710,277.320343 
	C269.386322,291.631378 255.281097,305.603455 241.529419,319.225342 
	C238.043289,316.897705 234.669647,313.605469 230.634247,312.157593 
	C220.901474,308.665497 211.533737,312.680298 206.823471,321.461090 
	C202.242111,330.001587 204.009888,339.861938 211.209488,345.925171 
	C218.707077,352.239349 230.040771,352.822449 237.450531,346.222778 
	C246.018936,338.591034 253.871094,330.152893 261.998444,322.029083 
	C266.564514,317.464996 271.058380,312.828705 275.692780,308.115082 
	C284.652679,317.419006 293.272583,326.369934 301.551361,334.966614 
	C294.660431,342.291809 287.274719,350.142975 279.883331,358.000183 
	C270.776489,348.517151 260.471588,346.432068 251.648911,352.061920 
	C242.448288,357.932983 239.541107,369.213623 244.769501,378.755798 
	C249.782349,387.904602 261.820648,392.019470 271.093781,387.005219 
	C275.513672,384.615295 279.325104,380.888855 282.971619,377.317993 
	C295.802185,364.753632 308.441772,351.994202 321.153839,339.308777 
	C321.674774,339.422363 322.195709,339.535950 322.716644,339.649536 
	C321.695953,346.871399 321.334503,354.261566 319.541504,361.286316 
	C311.384033,393.246338 280.303253,415.864716 246.337540,415.007660 
	C213.333878,414.174896 184.628067,389.868958 177.784668,357.469086 
	C174.910980,343.863647 175.659134,330.697235 180.231781,317.262268 
z"/>
<path fill="#F1EA04" opacity="1.000000" stroke="none" 
	d="
M456.052673,387.152100 
	C453.251953,387.152130 450.942749,387.152130 448.262482,387.152130 
	C448.262482,362.569946 448.262482,338.338623 448.262482,313.698883 
	C456.072449,313.698883 463.940582,313.698883 472.100037,313.698883 
	C472.324829,316.172821 472.546539,318.612732 472.869019,322.161591 
	C479.788544,315.127014 487.782288,312.209290 496.829041,311.818542 
	C506.351440,311.407288 514.323792,313.851471 519.192810,323.556793 
	C525.766113,315.655548 534.130554,312.053680 543.996521,311.712738 
	C556.371643,311.285065 565.552002,317.613159 566.199890,329.724365 
	C567.210571,348.618317 566.467407,367.606079 566.467407,386.851379 
	C558.191467,386.851379 549.578613,386.851379 540.089600,386.851379 
	C540.089600,384.280304 540.089600,381.692993 540.089600,379.105713 
	C540.089417,368.610016 540.095825,358.114349 540.086975,347.618652 
	C540.080078,339.467987 537.738525,335.388458 533.012634,335.245392 
	C527.602051,335.081604 521.180786,342.186798 521.158630,348.607544 
	C521.121277,359.435120 521.233398,370.263214 521.279724,381.091095 
	C521.287537,382.904480 521.280823,384.717896 521.280823,386.840851 
	C512.153198,386.840851 503.424194,386.840851 494.089233,386.840851 
	C494.089233,381.101410 494.115051,375.491089 494.083313,369.881104 
	C494.033386,361.054688 494.345276,352.201538 493.754913,343.410065 
	C493.211151,335.313110 487.255768,332.997681 480.800232,337.926178 
	C477.034119,340.801453 474.984558,344.440338 475.064362,349.461060 
	C475.254913,361.451660 475.090454,373.447968 475.054901,385.441925 
	C475.053955,385.754120 474.886200,386.065796 474.572815,387.152100 
	C468.722870,387.152100 462.633545,387.152100 456.052673,387.152100 
z"/>
<path fill="#EFE805" opacity="1.000000" stroke="none" 
	d="
M612.451477,387.293030 
	C606.916321,387.595276 601.680603,388.561340 596.676392,387.864594 
	C587.885376,386.640594 582.598816,380.847717 580.295471,372.375458 
	C579.773926,370.457214 579.340210,368.441620 579.331970,366.468842 
	C579.258301,348.825562 579.289001,331.181824 579.289001,313.237244 
	C588.135498,313.237244 596.739319,313.237244 606.243835,313.237244 
	C606.243835,320.626984 606.243225,328.053925 606.244019,335.480896 
	C606.244812,342.147308 606.182556,348.814514 606.266846,355.479889 
	C606.352722,362.269348 609.283020,365.742340 614.607422,365.607910 
	C621.280334,365.439423 626.424011,360.773224 626.445923,354.728851 
	C626.489441,342.729523 626.459595,330.729858 626.460022,318.730347 
	C626.460083,316.953369 626.459961,315.176361 626.459961,313.169556 
	C635.715820,313.169556 644.322510,313.169556 653.833923,313.169556 
	C653.833923,320.903961 653.833496,328.490295 653.834045,336.076599 
	C653.834595,343.242981 653.774658,350.410309 653.884827,357.575012 
	C653.909424,359.176819 654.040649,361.738586 654.961182,362.205475 
	C660.091125,364.807312 658.659851,369.330536 658.749084,373.402039 
	C658.843689,377.721039 658.770386,382.043732 658.770386,386.265411 
	C644.856628,390.751434 633.295044,388.296631 631.012756,378.348999 
	C625.113647,381.227173 618.984375,384.217621 612.451477,387.293030 
z"/>
<path fill="#EFE706" opacity="1.000000" stroke="none" 
	d="
M978.590210,337.350525 
	C974.119812,340.729187 972.422241,344.792145 972.544861,350.117615 
	C972.819885,362.060913 972.631042,374.014923 972.631042,386.296326 
	C963.396912,386.296326 954.683899,386.296326 945.669189,386.296326 
	C945.669189,361.787018 945.669189,337.539276 945.669189,312.831207 
	C953.546936,312.831207 961.409851,312.831207 969.692688,312.831207 
	C969.831421,315.514679 969.971436,318.224304 970.163208,321.934296 
	C978.485901,313.115295 988.379395,310.904602 999.196655,311.279999 
	C1008.899170,311.616730 1015.534546,316.487274 1018.452637,325.765503 
	C1018.999634,327.504852 1019.620239,329.326843 1019.628662,331.113403 
	C1019.714844,349.397827 1019.681458,367.682770 1019.681458,386.301483 
	C1010.966248,386.301483 1002.225952,386.301483 992.855713,386.301483 
	C992.855713,379.987854 992.856689,373.705200 992.855530,367.422546 
	C992.854126,359.927887 992.969971,352.430847 992.818237,344.939209 
	C992.628296,335.563446 987.086853,332.514740 978.590210,337.350525 
z"/>
<path fill="#F0E904" opacity="1.000000" stroke="none" 
	d="
M860.921692,328.935486 
	C875.168213,305.195953 917.103699,305.132660 930.943176,328.943085 
	C939.034058,342.863098 939.161987,357.470764 930.340637,371.047729 
	C920.992615,385.435516 906.350830,389.760529 890.203674,387.653625 
	C860.392029,383.763763 846.455017,355.582916 860.921692,328.935486 
M883.263245,350.351013 
	C883.608704,356.249756 885.059204,361.573151 891.077942,364.223816 
	C895.782593,366.295746 900.349487,365.687286 904.016479,362.157928 
	C909.744873,356.644775 909.617920,349.616943 907.624207,342.692932 
	C906.274780,338.006287 902.994324,334.677490 897.725403,334.104950 
	C889.024292,333.159485 883.992676,338.528229 883.263245,350.351013 
z"/>
<path fill="#EFE805" opacity="1.000000" stroke="none" 
	d="
M781.850586,372.163940 
	C769.570801,352.083252 774.993164,327.562622 793.780518,317.020905 
	C814.577576,305.351593 842.025513,312.130615 851.994446,331.851379 
	C843.868286,334.329163 835.853394,336.870270 827.757751,339.120819 
	C826.723145,339.408447 825.043945,338.450012 824.042786,337.614258 
	C816.646973,331.440247 806.314636,334.427521 804.038330,343.783722 
	C803.198669,347.234894 803.085327,351.114929 803.690002,354.618256 
	C805.536194,365.314819 816.032532,368.923401 824.377014,362.057892 
	C825.280273,361.314728 826.770142,360.449860 827.696960,360.703674 
	C834.429504,362.547485 841.092346,364.647675 847.764648,366.707520 
	C849.148743,367.134827 850.480286,367.732483 851.858643,368.260284 
	C840.186279,393.338837 799.548218,395.597382 781.850586,372.163940 
z"/>
<path fill="#EFE805" opacity="1.000000" stroke="none" 
	d="
M729.766663,357.436676 
	C732.492126,373.332336 725.644592,383.967041 710.208557,387.154755 
	C695.059448,390.283173 680.818237,387.615356 667.916626,378.722717 
	C665.494019,377.052917 664.544312,375.562134 666.465210,372.689087 
	C669.128601,368.705444 671.302307,364.394440 673.520325,360.512970 
	C680.401733,363.359039 686.866150,366.242645 693.500549,368.659515 
	C695.739685,369.475250 698.440552,369.403687 700.869934,369.152618 
	C702.035950,369.032104 703.748413,367.689789 703.960510,366.646179 
	C704.180481,365.563843 703.200745,363.528809 702.194824,363.036835 
	C698.935425,361.442749 695.421814,360.369171 692.008789,359.088074 
	C686.729492,357.106567 681.215454,355.583313 676.225037,353.035248 
	C666.588501,348.114868 663.714417,340.336792 667.097412,330.033691 
	C669.095337,323.948792 672.859802,319.235901 678.418640,315.976044 
	C692.249512,307.865082 714.910767,310.729004 726.733582,322.517395 
	C723.504089,327.646820 720.192993,332.905884 716.937866,338.076050 
	C711.750671,335.601044 707.125732,332.949127 702.183777,331.186218 
	C698.639465,329.921906 693.287842,327.941284 691.799255,332.936157 
	C690.237061,338.178284 696.248413,338.032288 699.487671,339.258850 
	C705.385864,341.492279 711.565125,342.999176 717.415833,345.337646 
	C722.937744,347.544647 727.580444,351.060730 729.766663,357.436676 
z"/>
<path fill="#F0E904" opacity="1.000000" stroke="none" 
	d="
M766.449036,337.000488 
	C766.448975,353.790833 766.448975,370.081207 766.448975,386.715881 
	C757.303284,386.715881 748.595703,386.715881 739.558777,386.715881 
	C739.558777,362.220398 739.558777,337.860229 739.558777,313.220703 
	C748.440857,313.220703 757.033752,313.220703 766.449097,313.220703 
	C766.449097,321.006744 766.449097,328.753601 766.449036,337.000488 
z"/>
<path fill="#EFE706" opacity="1.000000" stroke="none" 
	d="
M763.318176,307.158447 
	C755.113159,307.162170 747.347046,307.162170 739.407837,307.162170 
	C739.407837,299.502106 739.407837,292.393372 739.407837,284.767944 
	C748.184631,284.767944 756.879333,284.767944 766.395325,284.767944 
	C766.395325,291.531525 766.451538,298.586395 766.281494,305.635803 
	C766.268860,306.162109 764.636475,306.649353 763.318176,307.158447 
z"/>
<path fill="#DFD21E" opacity="1.000000" stroke="none" 
	d="
M378.000977,312.000000 
	C378.000977,288.500458 378.000977,265.500946 378.000977,242.501419 
	C378.678131,242.411377 379.355286,242.321350 380.032440,242.231308 
	C380.326721,243.873093 380.871490,245.514069 380.876892,247.156799 
	C380.937561,265.632690 380.915405,284.108795 380.915405,302.584869 
	C380.915405,342.699554 380.923370,382.814270 380.888672,422.928925 
	C380.887146,424.688416 380.495361,426.447540 380.285370,428.206848 
	C379.523895,428.166504 378.762451,428.126160 378.000977,428.085815 
	C378.000977,389.557220 378.000977,351.028595 378.000977,312.000000 
z"/>
<path fill="#4F077F" opacity="1.000000" stroke="none" 
	d="
M883.262634,349.926758 
	C883.992676,338.528229 889.024292,333.159485 897.725403,334.104950 
	C902.994324,334.677490 906.274780,338.006287 907.624207,342.692932 
	C909.617920,349.616943 909.744873,356.644775 904.016479,362.157928 
	C900.349487,365.687286 895.782593,366.295746 891.077942,364.223816 
	C885.059204,361.573151 883.608704,356.249756 883.262634,349.926758 
z"/>
</svg>